<svg id="Layer_1" data-name="Layer 1" xmlns="http://www.w3.org/2000/svg" xmlns:xlink="http://www.w3.org/1999/xlink" viewBox="0 0 24 24"><defs><style>.cls-1{fill:#38bdf8;}.cls-2{fill:url(#linear-gradient);}.cls-3{fill:url(#linear-gradient-2);}.cls-4{fill:url(#linear-gradient-3);}.cls-5{fill:url(#linear-gradient-4);}.cls-6{fill:url(#linear-gradient-5);}</style><linearGradient id="linear-gradient" x1="12.75" y1="9.19" x2="19.33" y2="15.3" gradientUnits="userSpaceOnUse"><stop offset="0" stop-color="#38bdf8" stop-opacity="0"/><stop offset="0.09" stop-color="#38bdf8" stop-opacity="0.04"/><stop offset="0.24" stop-color="#38bdf8" stop-opacity="0.15"/><stop offset="0.43" stop-color="#38bdf8" stop-opacity="0.33"/><stop offset="0.66" stop-color="#38bdf8" stop-opacity="0.58"/><stop offset="0.92" stop-color="#38bdf8" stop-opacity="0.89"/><stop offset="1" stop-color="#38bdf8"/></linearGradient><linearGradient id="linear-gradient-2" x1="11.99" y1="1.45" x2="17.91" y2="9.67" gradientUnits="userSpaceOnUse"><stop offset="0.21" stop-color="#38bdf8"/><stop offset="0.28" stop-color="#38bdf8" stop-opacity="0.88"/><stop offset="0.48" stop-color="#38bdf8" stop-opacity="0.57"/><stop offset="0.66" stop-color="#38bdf8" stop-opacity="0.33"/><stop offset="0.81" stop-color="#38bdf8" stop-opacity="0.15"/><stop offset="0.93" stop-color="#38bdf8" stop-opacity="0.04"/><stop offset="1" stop-color="#38bdf8" stop-opacity="0"/></linearGradient><linearGradient id="linear-gradient-3" x1="10.77" y1="4.23" x2="18.13" y2="7.39" xlink:href="#linear-gradient-2"/><linearGradient id="linear-gradient-4" x1="11.27" y1="4.96" x2="15.22" y2="5.76" xlink:href="#linear-gradient-2"/><linearGradient id="linear-gradient-5" x1="9.04" y1="5.22" x2="14.99" y2="5.22" xlink:href="#linear-gradient-2"/></defs><path class="cls-1" d="M19.56,15H12a3,3,0,0,1,0-6h0V1.45A10.55,10.55,0,1,0,22.12,15Z"/><path class="cls-2" d="M19.56,15v4.37a10.54,10.54,0,0,0,3-7.2c0-.06,0-.11,0-.17a3,3,0,0,0-3-3H12a3,3,0,0,0,0,6Z"/><path class="cls-3" d="M21.71,7.88a9.75,9.75,0,0,0-2.25-3.34A10.36,10.36,0,0,0,16,2.21h0A9.89,9.89,0,0,0,12,1.45V9h7.07Z"/><path class="cls-4" d="M21.71,7.88a9.75,9.75,0,0,0-2.25-3.34A10.36,10.36,0,0,0,16,2.21h0A9.89,9.89,0,0,0,12,1.45V9h7.07Z"/><path class="cls-5" d="M21.71,7.88a9.75,9.75,0,0,0-2.25-3.34A10.36,10.36,0,0,0,16,2.21h0A9.89,9.89,0,0,0,12,1.45V9h7.07Z"/><path class="cls-6" d="M12,1.45h0a10.61,10.61,0,0,0-3,.43V9h6V1.87A9.76,9.76,0,0,0,12,1.45Z"/></svg>