<svg width="24" height="24" viewBox="0 0 24 24" fill="none" xmlns="http://www.w3.org/2000/svg">
<path d="M14 8C14 7.44772 14.4477 7 15 7H16C16.5523 7 17 7.44772 17 8V9C17 9.55228 16.5523 10 16 10H15C14.4477 10 14 9.55228 14 9V8Z" stroke="black" stroke-width="1.5"/>
<path d="M7 15C7 14.4477 7.44772 14 8 14H9C9.55228 14 10 14.4477 10 15V16C10 16.5523 9.55228 17 9 17H8C7.44772 17 7 16.5523 7 16V15Z" stroke="black" stroke-width="1.5"/>
<path d="M8.5 14V7.5" stroke="black" stroke-width="1.5" stroke-linecap="round" stroke-linejoin="round"/>
<path d="M15.5 10V16.5" stroke="black" stroke-width="1.5" stroke-linecap="round" stroke-linejoin="round"/>
</svg>
