<svg width="24" height="24" viewBox="0 0 24 24" fill="none" xmlns="http://www.w3.org/2000/svg">
<path d="M5 16.8C5 15.9163 5.71635 15.2 6.6 15.2H8.2C9.08365 15.2 9.8 15.9163 9.8 16.8V18.4C9.8 19.2837 9.08365 20 8.2 20H6.6C5.71635 20 5 19.2837 5 18.4V16.8Z" stroke="black" stroke-width="1.5"/>
<path d="M7.40002 15.2V4.8" stroke="black" stroke-width="1.5" stroke-linecap="round" stroke-linejoin="round"/>
<path d="M14 5.6C14 4.71635 14.7163 4 15.6 4H17.2C18.0837 4 18.8 4.71635 18.8 5.6V7.2C18.8 8.08365 18.0837 8.8 17.2 8.8H15.6C14.7163 8.8 14 8.08365 14 7.2V5.6Z" stroke="black" stroke-width="1.5"/>
<path d="M16.4 8.8V19.2" stroke="black" stroke-width="1.5" stroke-linecap="round" stroke-linejoin="round"/>
</svg>
